<?xml version="1.0" encoding="utf-8"?>
<!-- Generator: Adobe Illustrator 18.1.1, SVG Export Plug-In . SVG Version: 6.00 Build 0)  -->
<svg version="1.1" id="Isolation_Mode" xmlns="http://www.w3.org/2000/svg" xmlns:xlink="http://www.w3.org/1999/xlink" x="0px"
	 y="0px" viewBox="0 0 300.3 96.3" style="enable-background:new 0 0 300.3 96.3;" xml:space="preserve">
<g>
	<path style="fill:#161D27;" d="M299.8,39.4l-5.7,19c-0.5,1.6-1.1,2.7-1.9,3.3c-0.8,0.6-2,0.9-3.5,0.9c-0.8,0-1.6-0.1-2.5-0.2v-3.8
		c0.6,0.1,1.1,0.1,1.7,0.1c0.7,0,1.2-0.1,1.5-0.3c0.3-0.2,0.6-0.6,0.9-1.2l-6.3-17.9h4.5l3.8,12.7h0.1l3.3-12.7H299.8z M273.7,56.9
		V39.4h4.2v2.4c0.9-1.9,2.7-2.8,5.4-2.8v4.3c-1.6,0-2.8,0.4-3.8,1.1c-1.1,0.9-1.6,2.2-1.6,4v8.5H273.7z M263.5,39.4v-6.2h4.2v6.2
		h3.8v3h-3.8v8.8c0,0.8,0.1,1.3,0.3,1.6c0.3,0.4,0.8,0.6,1.6,0.6c0,0,0.6-0.1,1.9-0.2v3.5c-1.3,0.3-2.5,0.4-3.4,0.4
		c-3.1,0-4.6-1.4-4.6-4.2V42.4h-2.6v-3H263.5z M259.7,42.1l-2.9,2.8c-0.7-1.6-2.2-2.5-4.4-2.5c-2.1,0-3.2,0.5-3.2,1.7
		c0,0.8,1,1.4,2.9,1.7c2.9,0.5,4.6,0.9,5.3,1.2c1.9,0.8,2.9,2.2,2.9,4.1c0,2-0.8,3.5-2.4,4.6c-1.4,1-3.2,1.5-5.4,1.5
		c-3.8,0-6.6-1.1-8.5-3.2l3.2-2.5c1,1.5,2.7,2.2,5,2.2c0.9,0,1.8-0.2,2.5-0.7c0.6-0.4,0.9-0.9,0.9-1.4c0-0.8-0.9-1.3-2.8-1.7
		c-2.8-0.6-4.5-1-5.2-1.3c-1.9-0.9-2.8-2.2-2.8-4.1c0-1.9,0.7-3.3,2.2-4.3c1.4-0.9,3.2-1.3,5.5-1.3C255.6,39,258,40,259.7,42.1z
		 M241.4,39.4v17.5h-4.2v-1.7c-1.1,1.4-2.8,2.1-5,2.1c-1.8,0-3.3-0.4-4.3-1.2c-1.4-1.1-2.1-2.8-2.1-5.1V39.4h4.2v10.4
		c0,2.3,1,3.5,3.1,3.5c1.5,0,2.5-0.5,3.3-1.4c0.6-0.8,0.9-1.8,0.9-3v-9.4H241.4z M217.3,56.9v-1.7c-1.2,1.4-2.8,2.1-4.9,2.1
		c-2.2,0-4.1-0.9-5.5-2.7c-1.4-1.8-2.2-3.9-2.2-6.5s0.7-4.7,2.1-6.5c1.4-1.8,3.2-2.7,5.5-2.7c1.9,0,3.6,0.6,5,1.9v-8.6h4.2v24.6
		H217.3z M213.3,42.8c-1.5,0-2.5,0.6-3.2,1.7c-0.6,0.9-0.9,2.1-0.9,3.6s0.3,2.7,0.9,3.6c0.7,1.1,1.8,1.7,3.2,1.7
		c1.5,0,2.5-0.6,3.3-1.7c0.6-0.9,0.9-2.1,0.9-3.6s-0.3-2.7-0.9-3.6C215.9,43.4,214.8,42.8,213.3,42.8z M186.6,56.9V39.4h4.2v1.7
		c1.2-1.4,2.8-2.1,4.8-2.1c4,0,6.1,2,6.1,5.9v12h-4.2V46.2c0-2.1-1-3.1-2.9-3.1c-1.1,0-2,0.4-2.6,1.1c-0.7,0.8-1.1,2-1.1,3.5v9.2
		H186.6z M178.3,36.5v-4.3h4.2v4.3H178.3z M178.3,56.9V39.4h4.2v17.5H178.3z M169.9,56.9V32.3h4.2v24.6H169.9z M154,45.9h8.5
		c0-0.7-0.3-1.4-0.9-2.1c-0.8-0.9-1.8-1.4-3-1.4c-1.2,0-2.2,0.3-3,1C154.8,44.1,154.2,44.9,154,45.9z M166.9,49.1H154
		c0,1.2,0.5,2.3,1.5,3.1c0.9,0.8,1.9,1.2,3.1,1.2c2.2,0,3.9-0.8,5-2.5l3.6,2.1c-1.9,2.9-4.7,4.3-8.6,4.3c-2.8,0-5-0.9-6.6-2.6
		c-1.6-1.7-2.3-3.9-2.3-6.5c0-2.7,0.8-4.9,2.4-6.6c1.6-1.7,3.8-2.6,6.5-2.6C164.1,39,166.9,42.3,166.9,49.1z M131.8,56.9l6-9.4
		l-5.3-8.1h4.9l2.8,4.3l2.8-4.3h4.9l-5.3,8.1l6,9.4h-5l-3.5-5.5l-3.5,5.5H131.8z M125.7,36.5v-4.3h4.2v4.3H125.7z M125.7,56.9V39.4
		h4.2v17.5H125.7z M114.1,53.4c1.5,0,2.5-0.6,3.3-1.7c0.6-0.9,0.9-2.1,0.9-3.6s-0.3-2.7-0.9-3.6c-0.7-1.1-1.8-1.7-3.3-1.7
		c-1.5,0-2.5,0.6-3.2,1.7c-0.6,0.9-0.9,2.1-0.9,3.6s0.3,2.7,0.9,3.6C111.5,52.8,112.6,53.4,114.1,53.4z M105.8,62.5V39.4h4.2v1.5
		c1.4-1.3,3.1-1.9,5-1.9c2.2,0,4,0.9,5.4,2.7c1.4,1.8,2.1,3.9,2.1,6.5s-0.7,4.7-2.1,6.5c-1.4,1.8-3.2,2.7-5.5,2.7
		c-2.1,0-3.7-0.7-5-2.1v7.3H105.8z"/>
	<path style="fill:#ED1C24;" d="M73.3,16.6c-2.4-1.3-5.3-2.9-9.2-5.2C60.5,9.3,57.5,7.5,55,6c-6.3-3.8-9.5-5.8-12.1-5.8
		C40.2,0.2,37,2.1,30.7,6c-2.6,1.6-5.7,3.5-9.1,5.4c-3.7,2.1-6.7,3.8-9.2,5.2c-6.5,3.6-9.8,5.4-11.1,7.6v0c-1.3,2.3-1.2,6-1.1,13.4
		c0.1,3.2,0.1,6.9,0.1,10.6s-0.1,7.4-0.1,10.6C0.1,66.1,0,69.8,1.3,72.1c1.3,2.2,4.5,4,11.1,7.6c2.4,1.3,5.3,2.9,9.2,5.2
		c3.6,2.1,6.6,3.9,9.1,5.4C37,94.1,40.2,96,42.8,96c2.6,0,5.8-1.9,12.1-5.8c2.6-1.6,5.7-3.5,9.1-5.4c3.7-2.1,6.7-3.8,9.2-5.2
		c6.5-3.6,9.8-5.4,11.1-7.6v0c1.3-2.3,1.2-6,1.1-13.4c-0.1-3.2-0.1-6.9-0.1-10.6s0.1-7.4,0.1-10.6c0.2-7.4,0.2-11.1-1.1-13.4
		C83,21.9,79.8,20.1,73.3,16.6"/>
	<path style="fill:#BF2126;" d="M0.3,39.3c0.1,2.8,0.1,5.8,0.1,8.8c0,3.7-0.1,7.4-0.1,10.6C0.1,66.1,0,69.8,1.3,72.1
		c1.3,2.2,4.5,4,11.1,7.6c2.4,1.3,5.3,2.9,9.2,5.2c0.6,0.3,1.2,0.7,1.8,1l14.5-8.4l0.1-5.6l21.8-12.6l3.7-17L47.1,29.5l-8.7,5
		l0.1-9.2l11.1-6.4l-0.4-0.4l5.8-3.3l-3.3-3.3L46,15.3l-1.5-1.5L0.3,39.3z"/>
	<path style="fill-rule:evenodd;clip-rule:evenodd;fill:#F5FBFA;" d="M44.5,13.8h5.1v5.1h-5.1V13.8z M51.8,11.9H55v3.3h-3.3V11.9z"
		/>
	<path style="fill-rule:evenodd;clip-rule:evenodd;fill:#F5FBFA;" d="M47.1,63.3v2c0,7-5.7,12.7-12.7,12.7c-7,0-12.7-5.7-12.7-12.7
		V42.2c0-7,5.7-12.7,12.7-12.7h4.2V21h8.5v8.5h5.4c8.7,0,15.8,7.1,15.8,15.8c0,8.7-7.1,15.8-15.8,15.8h-1.9h-3.5h-8.5h-3.3h-3v-8.5
		h6.2V40.1h8.5v12.5h5.4c4,0,7.3-3.3,7.3-7.3S56.5,38,52.5,38h-4.1h-2h-12c-2.3,0-4.2,1.9-4.2,4.2v4.5v5.9v8.5V62v3.3
		c0,2.3,1.9,4.2,4.2,4.2c2.3,0,4.2-1.9,4.2-4.2v-2H47.1z"/>
</g>
</svg>
